<svg width="21" height="16" viewBox="0 0 21 16" fill="none" xmlns="http://www.w3.org/2000/svg">
<path d="M15.9877 0H5.73107C4.43899 0 3.19984 0.513226 2.28622 1.42684C1.3726 2.34046 0.859375 3.57966 0.859375 4.87169V11.0255C0.859375 12.3176 1.3726 13.5567 2.28622 14.4703C3.19984 15.384 4.43904 15.8972 5.73107 15.8972H15.9877C17.2798 15.8972 18.5189 15.384 19.4325 14.4703C20.3461 13.5567 20.8594 12.3175 20.8594 11.0255V4.87169C20.8594 3.57962 20.3461 2.34046 19.4325 1.42684C18.5189 0.513226 17.2797 0 15.9877 0ZM2.39791 6.66631H5.73116C6.18926 6.66631 6.61251 6.91065 6.84156 7.30745C7.07044 7.70408 7.07044 8.19276 6.84156 8.58937C6.61251 8.98618 6.18926 9.23051 5.73116 9.23051H2.39791V6.66631ZM19.3208 11.0253C19.3181 11.9086 18.9661 12.7549 18.3416 13.3794C17.717 14.0038 16.8708 14.356 15.9876 14.3586H5.73098C4.84774 14.356 4.00159 14.0038 3.37693 13.3794C2.75246 12.7549 2.40046 11.9086 2.39773 11.0253V10.769H5.73098C6.73871 10.769 7.66982 10.2314 8.1736 9.3586C8.67755 8.48599 8.67755 7.41084 8.1736 6.53823C7.66982 5.66549 6.73866 5.12787 5.73098 5.12787H2.39773V4.87152C2.40048 3.98827 2.75247 3.14195 3.37693 2.51747C4.00159 1.89299 4.84774 1.54082 5.73098 1.53827H15.9876C16.8708 1.54085 17.717 1.89301 18.3416 2.51747C18.9661 3.14195 19.3181 3.98827 19.3208 4.87152V11.0253Z" fill="white"/>
</svg>
