<svg width="57" height="59" viewBox="0 0 57 59" fill="none" xmlns="http://www.w3.org/2000/svg">
<path d="M49.3387 20.0236C49.6642 20.0248 49.9867 19.9607 50.287 19.8349C50.5872 19.7092 50.8592 19.5244 51.0867 19.2916C52.7267 17.6206 55.4777 14.2736 55.4777 10.6296C55.4837 9.40015 55.1186 8.1975 54.4302 7.17883C53.7418 6.16017 52.7621 5.37287 51.6192 4.91984C50.4762 4.46681 49.2232 4.36912 48.0239 4.63954C46.8245 4.90997 45.7346 5.53592 44.8967 6.43559C43.7631 7.63606 43.1517 9.23707 43.1967 10.8876C43.3217 14.4316 45.9907 17.6656 47.5717 19.2786C47.8014 19.5147 48.0761 19.7023 48.3796 19.8303C48.6832 19.9582 49.0093 20.024 49.3387 20.0236ZM46.3497 7.80459C46.915 7.20059 47.6491 6.78076 48.4563 6.59976C49.2636 6.41877 50.1066 6.48498 50.8757 6.78979C51.6448 7.0946 52.3043 7.62388 52.7684 8.30874C53.2325 8.9936 53.4796 9.8023 53.4777 10.6296C53.4777 13.5626 51.0857 16.4376 49.6597 17.8896C49.5705 17.9757 49.4508 18.0228 49.3269 18.0208C49.203 18.0187 49.085 17.9676 48.9987 17.8786C47.6217 16.4736 45.2987 13.6876 45.1987 10.8176C45.1688 9.70056 45.5827 8.6172 46.3497 7.80459ZM52.6197 10.6606C52.6197 10.0109 52.427 9.37576 52.0661 8.83554C51.7051 8.29532 51.1921 7.87428 50.5918 7.62564C49.9916 7.37701 49.3311 7.31196 48.6938 7.43871C48.0566 7.56546 47.4713 7.87833 47.0118 8.33774C46.5524 8.79716 46.2396 9.38249 46.1128 10.0197C45.9861 10.6569 46.0511 11.3174 46.2998 11.9177C46.5484 12.518 46.9694 13.031 47.5096 13.392C48.0499 13.7529 48.685 13.9456 49.3347 13.9456C50.2056 13.9445 51.0405 13.5981 51.6564 12.9823C52.2722 12.3664 52.6186 11.5315 52.6197 10.6606ZM48.0497 10.6606C48.0497 10.4064 48.1251 10.158 48.2663 9.94668C48.4075 9.73536 48.6081 9.57066 48.8429 9.4734C49.0777 9.37614 49.3361 9.3507 49.5854 9.40028C49.8346 9.44986 50.0636 9.57225 50.2433 9.75196C50.423 9.93167 50.5454 10.1606 50.595 10.4099C50.6446 10.6592 50.6191 10.9175 50.5219 11.1523C50.4246 11.3871 50.2599 11.5878 50.0486 11.729C49.8373 11.8702 49.5888 11.9456 49.3347 11.9456C48.9942 11.9448 48.6679 11.8091 48.4273 11.5683C48.1866 11.3274 48.0502 11.0011 48.0497 10.6606ZM55.6657 46.4796C55.6068 46.2695 55.4808 46.0845 55.3069 45.9527C55.1331 45.8209 54.9209 45.7496 54.7027 45.7496H52.9157V40.8336C52.9156 40.6723 52.8765 40.5135 52.8018 40.3706C52.7271 40.2277 52.6189 40.105 52.4865 40.013C52.354 39.9209 52.2013 39.8623 52.0414 39.842C51.8814 39.8217 51.7189 39.8405 51.5677 39.8966L48.6677 40.9726C48.0716 39.5635 47.1493 38.3163 45.9767 37.3336H49.9147C50.7103 37.3336 51.4734 37.0175 52.036 36.4549C52.5986 35.8923 52.9147 35.1292 52.9147 34.3336V25.7506C52.9147 24.9549 52.5986 24.1919 52.036 23.6293C51.4734 23.0667 50.7103 22.7506 49.9147 22.7506H38.3967C39.0222 22.5141 39.5945 22.1558 40.0805 21.6964C40.5665 21.2371 40.9564 20.6858 41.2277 20.0746C41.9493 18.59 42.0518 16.8797 41.5127 15.3196C41.4074 14.9512 41.214 14.614 40.9492 14.3371C40.6843 14.0603 40.356 13.8521 39.9927 13.7306C39.5713 13.612 39.1261 13.6061 38.7017 13.7136C39.033 12.0651 39.1115 10.3757 38.9347 8.70359C38.747 7.05 38.1732 5.46367 37.2597 4.07259C35.3177 1.29959 32.8177 0.160588 28.3427 0.012588C24.4427 -0.116412 21.5337 0.746588 19.7197 2.57759C18.6999 3.60124 18.0584 4.94125 17.9007 6.37759C16.4407 7.71759 16.2677 10.1776 17.3477 13.6926C16.9828 13.6215 16.6065 13.6352 16.2477 13.7326C15.8868 13.8553 15.5609 14.0636 15.298 14.3396C15.035 14.6156 14.8428 14.9512 14.7377 15.3176C14.1987 16.878 14.3012 18.5887 15.0227 20.0736C15.2934 20.6845 15.6825 21.2356 16.1676 21.6951C16.6527 22.1546 17.2241 22.5134 17.8487 22.7506H6.2777C5.48205 22.7506 4.71899 23.0667 4.15638 23.6293C3.59377 24.1919 3.2777 24.9549 3.2777 25.7506V34.3336C3.2777 35.1292 3.59377 35.8923 4.15638 36.4549C4.71899 37.0175 5.48205 37.3336 6.2777 37.3336H10.1967C9.0398 38.3216 8.13251 39.5687 7.5487 40.9736L4.6797 39.8966C4.52836 39.8399 4.36552 39.8207 4.20514 39.8406C4.04475 39.8606 3.8916 39.9191 3.75879 40.0113C3.62598 40.1034 3.51748 40.2263 3.44258 40.3695C3.36767 40.5127 3.32859 40.672 3.3287 40.8336V45.7506H1.4907C1.27252 45.7506 1.06032 45.8219 0.886459 45.9537C0.712594 46.0855 0.586603 46.2705 0.527696 46.4806C-0.175899 48.9872 -0.175899 51.639 0.527696 54.1456C0.586603 54.3557 0.712594 54.5407 0.886459 54.6725C1.06032 54.8043 1.27252 54.8756 1.4907 54.8756H3.3287V57.3026C3.3287 57.5678 3.43405 57.8222 3.62159 58.0097C3.80913 58.1972 4.06348 58.3026 4.3287 58.3026H51.9157C52.1809 58.3026 52.4353 58.1972 52.6228 58.0097C52.8103 57.8222 52.9157 57.5678 52.9157 57.3026V54.8746H54.7027C54.9209 54.8746 55.1331 54.8033 55.3069 54.6715C55.4808 54.5397 55.6068 54.3547 55.6657 54.1446C56.3693 51.638 56.3693 48.9861 55.6657 46.4796ZM46.7967 41.6676L43.3507 42.9506L43.4847 38.0506C44.9556 38.8603 46.1194 40.1312 46.7967 41.6676ZM28.4147 39.8776C28.2234 39.8189 28.019 39.8189 27.8277 39.8776L18.9437 42.6056L19.1297 35.5526L19.7557 35.3236C20.8275 36.4482 22.1151 37.3451 23.5415 37.9607C24.9679 38.5762 26.5037 38.8978 28.0573 38.9061C29.6108 38.9144 31.15 38.6093 32.5829 38.0091C34.0158 37.4088 35.3129 36.5257 36.3967 35.4126L37.0967 35.6596L37.2797 42.5996L28.4147 39.8776ZM20.8417 27.9776C20.9767 28.1196 21.1117 28.2506 21.2417 28.3856V30.9856C21.2406 31.4729 21.0904 31.9482 20.8111 32.3476C20.5319 32.747 20.137 33.0513 19.6797 33.2196L18.9997 33.4686C18.8542 33.1738 18.614 32.9364 18.3176 32.7942C18.0212 32.6521 17.6856 32.6135 17.3647 32.6846L14.7647 33.2486C14.2594 33.3595 13.7977 33.6162 13.4367 33.9867C13.0758 34.3573 12.8313 34.8256 12.7337 35.3336H12.0337V24.7506H18.7867C19.2559 25.9496 19.9532 27.0457 20.8417 27.9776ZM23.6517 8.01659C24.6237 7.57459 26.7967 8.29959 27.6967 8.71659C27.8297 8.77903 27.9748 8.81139 28.1217 8.81139C28.2686 8.81139 28.4137 8.77903 28.5467 8.71659C29.4467 8.29559 31.6217 7.57059 32.5917 8.01659C34.1077 8.70859 35.3037 9.25459 34.9917 13.2576C34.9774 13.4405 35.0137 13.6239 35.0967 13.7876L36.1467 15.8506V21.0896C36.1543 23.1405 35.3685 25.1148 33.9537 26.5996C32.7121 28.0392 31.1546 29.1724 29.4027 29.9106C28.5658 30.1499 27.6786 30.1499 26.8417 29.9106C25.0897 29.1721 23.5319 28.039 22.2897 26.5996C20.8745 25.1142 20.0887 23.1391 20.0967 21.0876V15.8506L21.1447 13.7886C21.2278 13.6246 21.2642 13.4409 21.2497 13.2576C20.9397 9.25059 22.1357 8.70859 23.6517 8.01659ZM41.4567 33.2506L38.8567 32.6876C38.5176 32.6126 38.1629 32.6598 37.8552 32.8208C37.5475 32.9818 37.3065 33.2463 37.1747 33.5676L36.4657 33.3156C36.0361 33.1632 35.6643 32.8815 35.4012 32.5092C35.1382 32.137 34.9969 31.6924 34.9967 31.2366V28.3856C35.1317 28.2506 35.2657 28.1196 35.3967 27.9776C36.287 27.0462 36.9871 25.9501 37.4577 24.7506H44.1967V35.3336H43.4967C43.3979 34.8248 43.152 34.3562 42.7893 33.9859C42.4267 33.6156 41.9633 33.3599 41.4567 33.2506ZM34.5137 34.4706C32.7378 36.0565 30.436 36.9259 28.0551 36.91C25.6743 36.8941 23.3842 35.9941 21.6297 34.3846C22.134 33.9728 22.5406 33.4542 22.8202 32.8663C23.0998 32.2783 23.2455 31.6356 23.2467 30.9846V30.1506C24.1376 30.8577 25.1372 31.4156 26.2067 31.8026C27.4555 32.1777 28.7869 32.1777 30.0357 31.8026C31.1056 31.4157 32.1055 30.8578 32.9967 30.1506V31.2346C32.9971 31.8517 33.1333 32.4612 33.3954 33.0199C33.6576 33.5786 34.0393 34.0728 34.5137 34.4676V34.4706ZM14.8967 43.7266L14.6797 35.8506C14.6758 35.6997 14.7248 35.5522 14.8181 35.4335C14.9114 35.3148 15.0431 35.2325 15.1907 35.2006L17.1507 34.7756L16.9287 43.2216L15.0757 43.7906L14.8967 43.7266ZM39.2967 43.2186L39.0747 34.7786L41.0347 35.2026C41.1822 35.2348 41.3139 35.3175 41.4072 35.4363C41.5004 35.5551 41.5494 35.7026 41.5457 35.8536L41.3317 43.6976L41.1177 43.7766L39.2967 43.2186ZM50.9157 25.7506V34.3336C50.9157 34.5988 50.8103 34.8532 50.6228 35.0407C50.4353 35.2282 50.1809 35.3336 49.9157 35.3336H49.4717V24.7506H49.9157C50.1809 24.7506 50.4353 24.8559 50.6228 25.0435C50.8103 25.231 50.9157 25.4854 50.9157 25.7506ZM47.4717 24.7506V35.3336H46.1967V24.7506H47.4717ZM39.4027 15.6426C39.4707 15.6636 39.5587 15.8006 39.6267 15.9926C39.9831 17.0498 39.9113 18.2046 39.4267 19.2096C39.1535 19.8089 38.7096 20.3143 38.1507 20.6626V16.1426C38.8447 15.6886 39.2717 15.6036 39.4027 15.6416V15.6426ZM19.4367 7.70559C19.5771 7.60988 19.6909 7.47996 19.7672 7.32808C19.8435 7.17621 19.8798 7.0074 19.8727 6.83759C19.9199 5.76079 20.3725 4.74165 21.1397 3.98459C22.5267 2.58459 25.0027 1.90759 28.2757 2.01059C32.1287 2.13759 34.0497 2.97759 35.6197 5.21859C36.3307 6.31871 36.7821 7.5662 36.9397 8.86659C37.0076 9.63359 37.0283 10.404 37.0017 11.1736C37.0087 10.072 36.6661 8.9966 36.0231 8.10208C35.3802 7.20757 34.4701 6.54006 33.4237 6.19559C31.7027 5.40959 29.1547 6.29559 28.1237 6.72259C27.0907 6.29759 24.5427 5.40859 22.8237 6.19559C20.7027 7.16359 18.9687 8.35859 19.2337 13.0206C18.4037 10.2816 18.4527 8.37659 19.4367 7.70559ZM16.8207 19.2056C16.3362 18.2006 16.2644 17.0459 16.6207 15.9886C16.6887 15.7976 16.7767 15.6596 16.8447 15.6386C16.9717 15.6006 17.3987 15.6796 18.1017 16.1386V20.6596C17.5413 20.3125 17.0957 19.8077 16.8207 19.2086V19.2056ZM5.2777 34.3336V25.7506C5.2777 25.4854 5.38305 25.231 5.57059 25.0435C5.75813 24.8559 6.01248 24.7506 6.2777 24.7506H6.7517V35.3336H6.2777C6.01248 35.3336 5.75813 35.2282 5.57059 35.0407C5.38305 34.8532 5.2777 34.5988 5.2777 34.3336ZM8.7517 35.3336V24.7506H10.0307V35.3336H8.7517ZM12.7377 37.9986L12.8737 42.9686L9.4217 41.6746C10.0896 40.1162 11.2554 38.8234 12.7367 37.9986H12.7377ZM2.2727 47.7506H4.3657C4.70647 47.7439 5.04516 47.8052 5.36195 47.9309C5.67874 48.0567 5.96727 48.2443 6.21065 48.483C6.45402 48.7216 6.64736 49.0063 6.77935 49.3206C6.91134 49.6348 6.97932 49.9722 6.97932 50.3131C6.97932 50.6539 6.91134 50.9913 6.77935 51.3056C6.64736 51.6198 6.45402 51.9046 6.21065 52.1432C5.96727 52.3818 5.67874 52.5695 5.36195 52.6953C5.04516 52.821 4.70647 52.8823 4.3657 52.8756H2.2727C1.9094 51.1866 1.9094 49.4396 2.2727 47.7506ZM15.0427 50.5986C14.7775 50.5986 14.5231 50.7039 14.3356 50.8915C14.1481 51.079 14.0427 51.3334 14.0427 51.5986V56.2986H5.3287V54.7676C6.34717 54.5479 7.25963 53.9859 7.91409 53.1752C8.56855 52.3644 8.92551 51.354 8.92551 50.3121C8.92551 49.2702 8.56855 48.2597 7.91409 47.449C7.25963 46.6383 6.34717 46.0763 5.3287 45.8566V42.2756L14.6917 45.7866C14.8987 45.8635 15.1253 45.8706 15.3367 45.8066L27.1227 42.1866V56.3016H16.0427V51.6016C16.0432 51.4699 16.0177 51.3395 15.9677 51.2177C15.9177 51.0959 15.8441 50.9852 15.7512 50.8919C15.6583 50.7986 15.5479 50.7246 15.4263 50.6741C15.3047 50.6236 15.1744 50.5976 15.0427 50.5976V50.5986ZM29.1227 56.2986V42.1866L40.1517 45.5746V49.7336C40.1517 49.9988 40.2571 50.2532 40.4446 50.4407C40.6321 50.6282 40.8865 50.7336 41.1517 50.7336C41.4169 50.7336 41.6713 50.6282 41.8588 50.4407C42.0463 50.2532 42.1517 49.9988 42.1517 49.7336V45.5266L50.9167 42.2706V45.8416C49.8862 46.0517 48.96 46.6114 48.2948 47.426C47.6296 48.2406 47.2663 49.2599 47.2663 50.3116C47.2663 51.3633 47.6296 52.3826 48.2948 53.1972C48.96 54.0117 49.8862 54.5714 50.9167 54.7816V56.3006L29.1227 56.2986ZM53.9227 52.8716H51.8277C51.1568 52.8583 50.5179 52.5825 50.0482 52.1034C49.5784 51.6243 49.3153 50.9801 49.3153 50.3091C49.3153 49.6381 49.5784 48.9939 50.0482 48.5148C50.5179 48.0356 51.1568 47.7598 51.8277 47.7466H53.9207C54.2844 49.4366 54.2844 51.1846 53.9207 52.8746L53.9227 52.8716ZM16.0427 48.4126C16.0427 48.6104 15.984 48.8037 15.8742 48.9682C15.7643 49.1326 15.6081 49.2608 15.4254 49.3365C15.2427 49.4122 15.0416 49.432 14.8476 49.3934C14.6536 49.3548 14.4754 49.2596 14.3356 49.1197C14.1957 48.9798 14.1005 48.8017 14.0619 48.6077C14.0233 48.4137 14.0431 48.2126 14.1188 48.0299C14.1945 47.8472 14.3227 47.691 14.4871 47.5811C14.6516 47.4712 14.8449 47.4126 15.0427 47.4126C15.3079 47.4126 15.5623 47.5179 15.7498 47.7055C15.9373 47.893 16.0427 48.1474 16.0427 48.4126ZM42.1517 52.9176C42.1517 53.1154 42.093 53.3087 41.9832 53.4732C41.8733 53.6376 41.7171 53.7658 41.5344 53.8415C41.3517 53.9172 41.1506 53.937 40.9566 53.8984C40.7626 53.8598 40.5844 53.7645 40.4446 53.6247C40.3047 53.4848 40.2095 53.3067 40.1709 53.1127C40.1323 52.9187 40.1521 52.7176 40.2278 52.5349C40.3035 52.3522 40.4317 52.196 40.5961 52.0861C40.7606 51.9762 40.9539 51.9176 41.1517 51.9176C41.283 51.9177 41.413 51.9437 41.5343 51.9941C41.6556 52.0445 41.7657 52.1182 41.8585 52.2112C41.9513 52.3041 42.0248 52.4145 42.075 52.5358C42.1251 52.6572 42.1508 52.7873 42.1507 52.9186L42.1517 52.9176Z" fill="white"/>
</svg>
