<svg width="60" height="60" viewBox="0 0 60 60" fill="none" xmlns="http://www.w3.org/2000/svg">
<path d="M13 46C12.4067 46 11.8266 46.1759 11.3333 46.5056C10.8399 46.8352 10.4554 47.3038 10.2284 47.852C10.0013 48.4001 9.94189 49.0033 10.0576 49.5853C10.1734 50.1672 10.4591 50.7018 10.8787 51.1213C11.2982 51.5409 11.8328 51.8266 12.4147 51.9424C12.9967 52.0581 13.5999 51.9987 14.1481 51.7716C14.6962 51.5446 15.1648 51.1601 15.4944 50.6667C15.8241 50.1734 16 49.5933 16 49C16 48.2044 15.6839 47.4413 15.1213 46.8787C14.5587 46.3161 13.7957 46 13 46ZM13 50C12.8022 50 12.6089 49.9414 12.4444 49.8315C12.28 49.7216 12.1518 49.5654 12.0761 49.3827C12.0004 49.2 11.9806 48.9989 12.0192 48.8049C12.0578 48.6109 12.153 48.4327 12.2929 48.2929C12.4327 48.153 12.6109 48.0578 12.8049 48.0192C12.9989 47.9806 13.2 48.0004 13.3827 48.0761C13.5654 48.1518 13.7216 48.28 13.8315 48.4444C13.9414 48.6089 14 48.8022 14 49C14 49.2652 13.8946 49.5196 13.7071 49.7071C13.5196 49.8946 13.2652 50 13 50Z" fill="white"/>
<path d="M57.968 42.16C57.7648 39.5617 56.647 37.1196 54.8131 35.2678C52.9793 33.416 50.5482 32.2744 47.952 32.046C47.8202 29.9641 47.2548 27.9328 46.292 26.0822C45.3292 24.2317 43.9902 22.6028 42.361 21.3C42.349 21.287 42.332 21.28 42.319 21.268C39.6738 19.1521 36.3873 17.9996 33 18H21C17.1813 18.0063 13.5086 19.4682 10.7301 22.088C7.95168 24.7077 6.27655 28.2882 6.046 32.1C4.90868 32.3222 3.88368 32.9321 3.14584 33.8257C2.408 34.7193 2.00303 35.8412 2 37V42.171C1.41549 42.3786 0.909511 42.7619 0.551443 43.2684C0.193376 43.7749 0.000756748 44.3797 0 45V47C0 47.7956 0.316071 48.5587 0.87868 49.1213C1.44129 49.6839 2.20435 50 3 50H6.08C6.3191 51.6649 7.15041 53.1877 8.42145 54.2893C9.69249 55.3908 11.3181 55.9972 13 55.9972C14.6819 55.9972 16.3075 55.3908 17.5786 54.2893C18.8496 53.1877 19.6809 51.6649 19.92 50H40.08C40.3191 51.6649 41.1504 53.1877 42.4214 54.2893C43.6925 55.3908 45.3181 55.9972 47 55.9972C48.6819 55.9972 50.3075 55.3908 51.5786 54.2893C52.8496 53.1877 53.6809 51.6649 53.92 50H57C57.7956 50 58.5587 49.6839 59.1213 49.1213C59.6839 48.5587 60 47.7956 60 47V45C59.9992 44.374 59.803 43.7638 59.4387 43.2547C59.0744 42.7455 58.5603 42.3628 57.968 42.16ZM45.962 32H14C14.0029 29.6139 14.9521 27.3265 16.6393 25.6393C18.3265 23.9521 20.6139 23.0029 23 23H41.278C42.6233 24.1085 43.7315 25.4768 44.5362 27.0231C45.341 28.5695 45.8259 30.2621 45.962 32ZM21 20H33C34.7108 20.0002 36.4046 20.3401 37.983 21H23C20.0837 21.0034 17.2878 22.1635 15.2256 24.2256C13.1635 26.2878 12.0034 29.0837 12 32H8.038C8.29376 28.7364 9.76985 25.6889 12.1721 23.4649C14.5743 21.241 17.7264 20.0038 21 20ZM13 54C12.0111 54 11.0444 53.7068 10.2221 53.1573C9.3999 52.6079 8.75904 51.827 8.3806 50.9134C8.00216 49.9998 7.90315 48.9945 8.09607 48.0245C8.289 47.0546 8.7652 46.1637 9.46447 45.4645C10.1637 44.7652 11.0546 44.289 12.0245 44.0961C12.9945 43.9031 13.9998 44.0022 14.9134 44.3806C15.827 44.759 16.6079 45.3999 17.1573 46.2221C17.7068 47.0444 18 48.0111 18 49C17.9984 50.3256 17.4711 51.5964 16.5338 52.5338C15.5964 53.4711 14.3256 53.9984 13 54ZM47 54C46.0111 54 45.0444 53.7068 44.2221 53.1573C43.3999 52.6079 42.759 51.827 42.3806 50.9134C42.0022 49.9998 41.9031 48.9945 42.0961 48.0245C42.289 47.0546 42.7652 46.1637 43.4645 45.4645C44.1637 44.7652 45.0546 44.289 46.0245 44.0961C46.9945 43.9031 47.9998 44.0022 48.9134 44.3806C49.827 44.759 50.6079 45.3999 51.1573 46.2221C51.7068 47.0444 52 48.0111 52 49C51.9984 50.3256 51.4711 51.5964 50.5338 52.5338C49.5964 53.4711 48.3256 53.9984 47 54ZM58 47C58 47.2652 57.8946 47.5196 57.7071 47.7071C57.5196 47.8946 57.2652 48 57 48H53.92C53.6809 46.3351 52.8496 44.8123 51.5786 43.7107C50.3075 42.6092 48.6819 42.0028 47 42.0028C45.3181 42.0028 43.6925 42.6092 42.4214 43.7107C41.1504 44.8123 40.3191 46.3351 40.08 48H19.92C19.6809 46.3351 18.8496 44.8123 17.5786 43.7107C16.3075 42.6092 14.6819 42.0028 13 42.0028C11.3181 42.0028 9.69249 42.6092 8.42145 43.7107C7.15041 44.8123 6.3191 46.3351 6.08 48H3C2.73478 48 2.48043 47.8946 2.29289 47.7071C2.10536 47.5196 2 47.2652 2 47V45C2 44.7348 2.10536 44.4804 2.29289 44.2929C2.48043 44.1054 2.73478 44 3 44C3.26522 44 3.51957 43.8946 3.70711 43.7071C3.89464 43.5196 4 43.2652 4 43V37C4 36.2044 4.31607 35.4413 4.87868 34.8787C5.44129 34.3161 6.20435 34 7 34H47C49.3861 34.0029 51.6735 34.9521 53.3607 36.6393C55.0479 38.3265 55.9971 40.6139 56 43C56 43.2652 56.1054 43.5196 56.2929 43.7071C56.4804 43.8946 56.7348 44 57 44C57.2652 44 57.5196 44.1054 57.7071 44.2929C57.8946 44.4804 58 44.7348 58 45V47Z" fill="white"/>
<path d="M47 46C46.4067 46 45.8266 46.1759 45.3333 46.5056C44.8399 46.8352 44.4554 47.3038 44.2284 47.852C44.0013 48.4001 43.9419 49.0033 44.0576 49.5853C44.1734 50.1672 44.4591 50.7018 44.8787 51.1213C45.2982 51.5409 45.8328 51.8266 46.4147 51.9424C46.9967 52.0581 47.5999 51.9987 48.148 51.7716C48.6962 51.5446 49.1648 51.1601 49.4944 50.6667C49.8241 50.1734 50 49.5933 50 49C50 48.2044 49.6839 47.4413 49.1213 46.8787C48.5587 46.3161 47.7957 46 47 46ZM47 50C46.8022 50 46.6089 49.9414 46.4444 49.8315C46.28 49.7216 46.1518 49.5654 46.0761 49.3827C46.0004 49.2 45.9806 48.9989 46.0192 48.8049C46.0578 48.6109 46.153 48.4327 46.2929 48.2929C46.4327 48.153 46.6109 48.0578 46.8049 48.0192C46.9989 47.9806 47.2 48.0004 47.3827 48.0761C47.5654 48.1518 47.7216 48.28 47.8315 48.4444C47.9414 48.6089 48 48.8022 48 49C48 49.2652 47.8946 49.5196 47.7071 49.7071C47.5196 49.8946 47.2652 50 47 50Z" fill="white"/>
<path d="M30 35C29.7348 35 29.4804 35.1054 29.2929 35.2929C29.1054 35.4804 29 35.7348 29 36V46C29 46.2652 29.1054 46.5196 29.2929 46.7071C29.4804 46.8946 29.7348 47 30 47C30.2652 47 30.5196 46.8946 30.7071 46.7071C30.8946 46.5196 31 46.2652 31 46V36C31 35.7348 30.8946 35.4804 30.7071 35.2929C30.5196 35.1054 30.2652 35 30 35Z" fill="white"/>
<path d="M47 35C46.7348 35 46.4804 35.1054 46.2929 35.2929C46.1054 35.4804 46 35.7348 46 36V40C46 40.2652 46.1054 40.5196 46.2929 40.7071C46.4804 40.8946 46.7348 41 47 41C47.2652 41 47.5196 40.8946 47.7071 40.7071C47.8946 40.5196 48 40.2652 48 40V36C48 35.7348 47.8946 35.4804 47.7071 35.2929C47.5196 35.1054 47.2652 35 47 35Z" fill="white"/>
<path d="M30 24C29.7348 24 29.4804 24.1054 29.2929 24.2929C29.1054 24.4804 29 24.7348 29 25V30C29 30.2652 29.1054 30.5196 29.2929 30.7071C29.4804 30.8946 29.7348 31 30 31C30.2652 31 30.5196 30.8946 30.7071 30.7071C30.8946 30.5196 31 30.2652 31 30V25C31 24.7348 30.8946 24.4804 30.7071 24.2929C30.5196 24.1054 30.2652 24 30 24Z" fill="white"/>
<path d="M8 35C7.40666 35 6.82664 35.1759 6.33329 35.5056C5.83994 35.8352 5.45543 36.3038 5.22836 36.852C5.0013 37.4001 4.94189 38.0033 5.05765 38.5853C5.1734 39.1672 5.45912 39.7018 5.87868 40.1213C6.29824 40.5409 6.83279 40.8266 7.41473 40.9424C7.99667 41.0581 8.59987 40.9987 9.14805 40.7716C9.69623 40.5446 10.1648 40.1601 10.4944 39.6667C10.8241 39.1734 11 38.5933 11 38C11 37.2044 10.6839 36.4413 10.1213 35.8787C9.55871 35.3161 8.79565 35 8 35ZM8 39C7.80222 39 7.60888 38.9414 7.44443 38.8315C7.27998 38.7216 7.15181 38.5654 7.07612 38.3827C7.00043 38.2 6.98063 37.9989 7.01922 37.8049C7.0578 37.6109 7.15304 37.4327 7.29289 37.2929C7.43275 37.153 7.61093 37.0578 7.80491 37.0192C7.99889 36.9806 8.19996 37.0004 8.38268 37.0761C8.56541 37.1518 8.72159 37.28 8.83147 37.4444C8.94135 37.6089 9 37.8022 9 38C9 38.2652 8.89464 38.5196 8.70711 38.7071C8.51957 38.8946 8.26522 39 8 39Z" fill="white"/>
<path d="M47 58H13C12.7348 58 12.4804 58.1054 12.2929 58.2929C12.1054 58.4804 12 58.7348 12 59C12 59.2652 12.1054 59.5196 12.2929 59.7071C12.4804 59.8946 12.7348 60 13 60H47C47.2652 60 47.5196 59.8946 47.7071 59.7071C47.8946 59.5196 48 59.2652 48 59C48 58.7348 47.8946 58.4804 47.7071 58.2929C47.5196 58.1054 47.2652 58 47 58Z" fill="white"/>
<path d="M9 58H8C7.73478 58 7.48043 58.1054 7.29289 58.2929C7.10536 58.4804 7 58.7348 7 59C7 59.2652 7.10536 59.5196 7.29289 59.7071C7.48043 59.8946 7.73478 60 8 60H9C9.26522 60 9.51957 59.8946 9.70711 59.7071C9.89464 59.5196 10 59.2652 10 59C10 58.7348 9.89464 58.4804 9.70711 58.2929C9.51957 58.1054 9.26522 58 9 58Z" fill="white"/>
<path d="M21 57C21.2652 57 21.5196 56.8946 21.7071 56.7071C21.8946 56.5196 22 56.2652 22 56C22 55.7348 21.8946 55.4804 21.7071 55.2929C21.5196 55.1054 21.2652 55 21 55H20C19.7348 55 19.4804 55.1054 19.2929 55.2929C19.1054 55.4804 19 55.7348 19 56C19 56.2652 19.1054 56.5196 19.2929 56.7071C19.4804 56.8946 19.7348 57 20 57H21Z" fill="white"/>
<path d="M40 57C40.2652 57 40.5196 56.8946 40.7071 56.7071C40.8946 56.5196 41 56.2652 41 56C41 55.7348 40.8946 55.4804 40.7071 55.2929C40.5196 55.1054 40.2652 55 40 55H25C24.7348 55 24.4804 55.1054 24.2929 55.2929C24.1054 55.4804 24 55.7348 24 56C24 56.2652 24.1054 56.5196 24.2929 56.7071C24.4804 56.8946 24.7348 57 25 57H40Z" fill="white"/>
<path d="M52 12C51.2089 12 50.4355 11.7654 49.7777 11.3259C49.1199 10.8864 48.6072 10.2616 48.3045 9.53074C48.0017 8.79983 47.9225 7.99556 48.0769 7.21964C48.2312 6.44372 48.6122 5.73098 49.1716 5.17157C49.731 4.61216 50.4437 4.2312 51.2196 4.07686C51.9956 3.92252 52.7998 4.00173 53.5307 4.30448C54.2616 4.60723 54.8864 5.11992 55.3259 5.77772C55.7654 6.43552 56 7.20888 56 8C56 9.06087 55.5786 10.0783 54.8284 10.8284C54.0783 11.5786 53.0609 12 52 12ZM52 6C51.6044 6 51.2178 6.1173 50.8889 6.33706C50.56 6.55683 50.3036 6.86918 50.1522 7.23464C50.0009 7.60009 49.9613 8.00222 50.0384 8.39018C50.1156 8.77814 50.3061 9.13451 50.5858 9.41422C50.8655 9.69392 51.2219 9.8844 51.6098 9.96157C51.9978 10.0387 52.3999 9.99914 52.7654 9.84776C53.1308 9.69639 53.4432 9.44004 53.6629 9.11114C53.8827 8.78224 54 8.39556 54 8C54 7.46957 53.7893 6.96086 53.4142 6.58579C53.0391 6.21072 52.5304 6 52 6Z" fill="white"/>
<path d="M52 0C49.879 0.00238211 47.8456 0.846002 46.3458 2.34578C44.846 3.84555 44.0024 5.879 44 8C44 12.155 50.541 18.94 51.286 19.7C51.3791 19.7949 51.4902 19.8704 51.6128 19.9218C51.7354 19.9733 51.867 19.9999 52 19.9999C52.133 19.9999 52.2646 19.9733 52.3872 19.9218C52.5098 19.8704 52.6209 19.7949 52.714 19.7C53.459 18.94 60 12.155 60 8C59.9976 5.879 59.154 3.84555 57.6542 2.34578C56.1544 0.846002 54.121 0.00238211 52 0ZM52 17.547C49.839 15.206 46 10.524 46 8C46 6.4087 46.6321 4.88258 47.7574 3.75736C48.8826 2.63214 50.4087 2 52 2C53.5913 2 55.1174 2.63214 56.2426 3.75736C57.3679 4.88258 58 6.4087 58 8C58 10.521 54.161 15.2 52 17.547Z" fill="white"/>
<path d="M5.17212 10.171C4.97055 10.1707 4.77379 10.1094 4.60764 9.9953C4.44149 9.88117 4.31371 9.7195 4.24105 9.53148C4.16839 9.34346 4.15425 9.13787 4.20049 8.94167C4.24672 8.74547 4.35116 8.56782 4.50012 8.43202L4.77012 8.18702C7.35179 6.02332 10.6114 4.83509 13.9799 4.82979C17.3483 4.82449 20.6117 6.00245 23.2001 8.15802L23.5001 8.43102C23.6868 8.61184 23.7957 8.85823 23.8038 9.11798C23.812 9.37773 23.7187 9.63045 23.5437 9.82259C23.3687 10.0147 23.1258 10.1312 22.8664 10.1473C22.607 10.1635 22.3516 10.078 22.1541 9.90902L21.8861 9.66502C19.6636 7.82407 16.8668 6.81909 13.9809 6.82438C11.0949 6.82968 8.30187 7.84492 6.08613 9.69402L5.85012 9.91102C5.66469 10.0796 5.42272 10.1724 5.17212 10.171Z" fill="white"/>
<path d="M17.4382 16.071C17.2043 16.0709 16.9779 15.9888 16.7982 15.839C16.0123 15.1836 15.0215 14.8247 13.9982 14.8247C12.975 14.8247 11.9841 15.1836 11.1982 15.839C10.9937 16.0012 10.7339 16.0771 10.4742 16.0504C10.2145 16.0236 9.97557 15.8964 9.80844 15.6958C9.64131 15.4952 9.55924 15.2373 9.57975 14.977C9.60027 14.7168 9.72174 14.4749 9.91822 14.303C11.0628 13.3484 12.5059 12.8256 13.9962 12.8256C15.4866 12.8256 16.9297 13.3484 18.0742 14.303C18.232 14.4346 18.3454 14.6115 18.3991 14.8098C18.4527 15.0082 18.444 15.2182 18.3741 15.4114C18.3041 15.6045 18.1764 15.7715 18.0083 15.8895C17.8401 16.0075 17.6397 16.0709 17.4342 16.071H17.4382Z" fill="white"/>
<path d="M20.707 11.293C18.8329 9.70601 16.4567 8.83508 14.001 8.83508C11.5452 8.83508 9.16905 9.70601 7.29497 11.293C7.11259 11.4751 7.00753 11.7205 7.00172 11.9782C6.99591 12.2358 7.08978 12.4858 7.26377 12.6759C7.43776 12.866 7.67842 12.9816 7.93557 12.9986C8.19272 13.0155 8.4465 12.9326 8.64397 12.767C10.1458 11.5087 12.0427 10.8191 14.002 10.8191C15.9613 10.8191 17.8581 11.5087 19.36 12.767C19.5575 12.9326 19.8112 13.0155 20.0684 12.9986C20.3255 12.9816 20.5662 12.866 20.7402 12.6759C20.9142 12.4858 21.008 12.2358 21.0022 11.9782C20.9964 11.7205 20.8914 11.4751 20.709 11.293H20.707Z" fill="white"/>
</svg>
