<svg width="36" height="36" viewBox="0 0 36 36" fill="none" xmlns="http://www.w3.org/2000/svg">
<g id="vuesax/linear/notification-bing">
<g id="notification-bing">
<path id="Vector" d="M18 9.65967V14.6547" stroke="#444750" stroke-width="1.25" stroke-miterlimit="10" stroke-linecap="round"/>
<path id="Vector_2" d="M18.0303 3C12.5103 3 8.04034 7.47 8.04034 12.99V16.14C8.04034 17.16 7.62033 18.69 7.09533 19.56L5.19033 22.74C4.02033 24.705 4.83033 26.895 6.99033 27.615C14.1603 30 21.9153 30 29.0853 27.615C31.1103 26.94 31.9803 24.57 30.8853 22.74L28.9803 19.56C28.4553 18.69 28.0353 17.145 28.0353 16.14V12.99C28.0203 7.5 23.5203 3 18.0303 3Z" stroke="#444750" stroke-width="1.25" stroke-miterlimit="10" stroke-linecap="round"/>
<path id="Vector_3" d="M22.9959 28.23C22.9959 30.975 20.7459 33.225 18.0009 33.225C16.6359 33.225 15.3759 32.655 14.4759 31.755C13.5759 30.855 13.0059 29.595 13.0059 28.23" stroke="#444750" stroke-width="1.25" stroke-miterlimit="10"/>
</g>
</g>
</svg>
