<svg width="21" height="20" viewBox="0 0 21 20" fill="none" xmlns="http://www.w3.org/2000/svg">
<path d="M12.3207 20H9.00964C8.42608 20 7.86627 19.7681 7.45361 19.3555C7.04095 18.9428 6.8091 18.3831 6.8091 17.7994C6.81116 17.6827 6.78173 17.5676 6.72389 17.4662C6.66587 17.365 6.58169 17.2811 6.48013 17.2236C6.27838 17.0993 6.0238 17.0993 5.82201 17.2236C5.3164 17.5214 4.71217 17.603 4.14584 17.4498C3.58343 17.2942 3.10383 16.9253 2.80914 16.4216L1.15364 13.5526C0.862544 13.0479 0.783532 12.4485 0.933984 11.8856C1.08427 11.3227 1.4518 10.8424 1.95568 10.5501C2.05914 10.4939 2.14556 10.4108 2.20529 10.3092C2.26503 10.2078 2.29618 10.092 2.29498 9.97424C2.29636 9.85907 2.26658 9.74563 2.20857 9.64596C2.15055 9.54646 2.06672 9.46434 1.96601 9.40874C1.45957 9.1161 1.08979 8.6348 0.937443 8.06997C0.785269 7.50536 0.862905 6.90333 1.15365 6.39588L2.80915 3.52689C3.10386 3.02318 3.58344 2.65428 4.14585 2.49867C4.71584 2.35993 5.31747 2.46029 5.81171 2.77635C5.94718 2.86293 6.10952 2.89771 6.26857 2.8743C6.42781 2.85106 6.5731 2.77101 6.6781 2.64913C6.78311 2.52725 6.84044 2.37163 6.83992 2.21068C6.83717 1.6254 7.06784 1.06299 7.48082 0.648123C7.89379 0.233253 8.45514 0 9.04047 0H12.3515C12.9352 0 13.4949 0.231706 13.9075 0.64451C14.3202 1.05714 14.552 1.61676 14.552 2.20054C14.55 2.31726 14.5794 2.43225 14.6373 2.53364C14.6953 2.63504 14.7795 2.71887 14.8812 2.77637C15.0829 2.90065 15.3375 2.90065 15.5393 2.77637C16.0447 2.47839 16.649 2.39679 17.2153 2.55017C17.7777 2.70579 18.2573 3.07468 18.552 3.57839L20.2075 6.44737L20.2077 6.4472C20.4986 6.95192 20.5776 7.55152 20.4273 8.11442C20.2769 8.67718 19.9095 9.15744 19.4055 9.44993C19.302 9.50588 19.2156 9.5892 19.1558 9.69059C19.0961 9.79215 19.0651 9.90801 19.0662 10.0258C19.0648 10.1409 19.0947 10.2544 19.1526 10.3539C19.2106 10.4535 19.2944 10.5355 19.3953 10.5912C19.9016 10.8839 20.2713 11.3652 20.4237 11.9298C20.5759 12.4946 20.4982 13.0967 20.2077 13.6041L18.5522 16.4731L18.552 16.4729C18.2573 16.9766 17.7777 17.3455 17.2153 17.5013C16.6524 17.6552 16.0511 17.5734 15.5494 17.2751C15.414 17.1885 15.2518 17.1536 15.0926 17.177C14.9333 17.2004 14.788 17.2803 14.683 17.4022C14.5782 17.524 14.5207 17.6798 14.5212 17.8406C14.5104 18.4171 14.2738 18.9663 13.8624 19.3701C13.4508 19.774 12.8972 20.0002 12.3207 20L12.3207 20ZM6.15102 15.5887C6.53748 15.5902 6.91689 15.693 7.25138 15.887C7.58672 16.0783 7.86543 16.3551 8.05872 16.6894C8.25204 17.0235 8.35309 17.4031 8.35154 17.7892C8.35154 17.9648 8.42057 18.1331 8.54365 18.2583C8.66674 18.3833 8.83423 18.4549 9.00964 18.4577H12.3207C12.4952 18.4577 12.6626 18.3883 12.786 18.2649C12.9094 18.1414 12.9788 17.9741 12.9788 17.7995C12.9766 17.4119 13.0773 17.0306 13.2704 16.6945C13.4637 16.3585 13.7428 16.0798 14.079 15.887C14.4123 15.6897 14.7922 15.5856 15.1794 15.5856C15.5665 15.5856 15.9464 15.6897 16.2795 15.887C16.4307 15.9765 16.6114 16.0018 16.7814 15.9574C16.9513 15.913 17.0965 15.8025 17.1845 15.6505L18.8915 12.7815C18.9805 12.6319 19.0056 12.4529 18.961 12.2845C18.9166 12.1164 18.8063 11.973 18.655 11.8869C18.2058 11.6287 17.8622 11.22 17.6847 10.7332C17.5072 10.2463 17.5073 9.71253 17.6847 9.2257C17.8622 8.73904 18.2058 8.33039 18.655 8.07197C18.807 7.984 18.9175 7.83889 18.9619 7.66898C19.0063 7.4989 18.981 7.31832 18.8915 7.16717L17.1845 4.29819C17.0964 4.14687 16.9525 4.03601 16.7834 3.9897C16.6159 3.94563 16.4377 3.97163 16.2899 4.06166C15.608 4.45294 14.7699 4.45277 14.0883 4.06114C13.4066 3.66951 12.9842 2.94549 12.9788 2.15947C12.9788 1.98389 12.9098 1.81553 12.7867 1.69036C12.6636 1.56538 12.4961 1.49377 12.3207 1.49102H9.0097C8.83515 1.49102 8.66783 1.56039 8.54438 1.68382C8.42093 1.80725 8.35158 1.97457 8.35158 2.14914C8.35382 2.53682 8.25311 2.91811 8.05996 3.25413C7.86665 3.59016 7.58759 3.86885 7.25139 4.06165C6.91811 4.25893 6.53817 4.36308 6.15103 4.36308C5.76388 4.36308 5.38396 4.25893 5.05084 4.06165C4.8997 3.97214 4.71895 3.94683 4.54903 3.99124C4.37912 4.03566 4.23383 4.14617 4.14587 4.29818L2.49037 7.16716C2.40137 7.31675 2.37624 7.49578 2.42065 7.66412C2.46524 7.83231 2.57558 7.97571 2.7269 8.06178C3.176 8.31999 3.51961 8.72867 3.69712 9.2155C3.8746 9.70234 3.8746 10.2361 3.69712 10.723C3.51964 11.2096 3.17605 11.6183 2.7269 11.8767C2.57317 11.9629 2.46042 12.1074 2.41394 12.2775C2.36763 12.4475 2.39139 12.6291 2.48004 12.7815L4.13554 15.6505C4.22368 15.8018 4.36776 15.9127 4.53664 15.959C4.70413 16.0031 4.8823 15.9771 5.03017 15.887C5.3717 15.6923 5.75783 15.5896 6.15102 15.5887V15.5887Z" fill="white"/>
<path d="M10.6656 13.8302C9.6429 13.8302 8.66219 13.424 7.93902 12.7008C7.21584 11.9776 6.80957 10.9969 6.80957 9.97421C6.80957 8.95149 7.21583 7.97078 7.93902 7.24761C8.6622 6.52444 9.6429 6.11816 10.6656 6.11816C11.6883 6.11816 12.669 6.52443 13.3922 7.24761C14.1154 7.97079 14.5217 8.95149 14.5217 9.97421C14.5217 10.9969 14.1154 11.9776 13.3922 12.7008C12.669 13.424 11.6883 13.8302 10.6656 13.8302ZM10.6656 7.66058C10.0519 7.66058 9.46354 7.90434 9.02955 8.33814C8.59574 8.77212 8.35199 9.3605 8.35199 9.97421C8.35199 10.5879 8.59574 11.1763 9.02955 11.6103C9.46353 12.0441 10.0519 12.2878 10.6656 12.2878C11.2793 12.2878 11.8677 12.0441 12.3017 11.6103C12.7355 11.1763 12.9792 10.5879 12.9792 9.97421C12.9792 9.3605 12.7355 8.77213 12.3017 8.33814C11.8677 7.90434 11.2793 7.66058 10.6656 7.66058Z" fill="white"/>
</svg>
