<?xml version="1.0" standalone="no"?>
<!DOCTYPE svg PUBLIC "-//W3C//DTD SVG 20010904//EN"
 "http://www.w3.org/TR/2001/REC-SVG-20010904/DTD/svg10.dtd">
<svg version="1.0" xmlns="http://www.w3.org/2000/svg"
 width="1995.000000pt" height="1995.000000pt" viewBox="0 0 1995.000000 1995.000000"
 preserveAspectRatio="xMidYMid meet">
<metadata>
Created by potrace 1.16, written by Peter Selinger 2001-2019
</metadata>
<g transform="translate(0.000000,1995.000000) scale(0.100000,-0.100000)"
fill="#000000" stroke="none">
<path d="M9730 19049 c-19 -4 -90 -17 -157 -29 -126 -21 -252 -64 -410 -140
-104 -50 -306 -194 -381 -271 -31 -33 -64 -59 -74 -59 -9 0 -25 14 -35 31 -10
17 -36 41 -58 52 -36 20 -58 22 -228 25 -134 3 -216 -1 -285 -12 -53 -8 -123
-17 -156 -21 -32 -3 -125 -28 -206 -55 -81 -28 -154 -50 -163 -50 -8 0 -40
-13 -70 -29 -30 -16 -72 -34 -93 -41 -58 -19 -245 -114 -338 -172 -149 -94
-311 -229 -446 -372 -186 -199 -464 -631 -531 -825 -31 -88 -43 -101 -81 -90
-43 12 -100 12 -134 -1 -15 -6 -64 -41 -108 -78 -45 -38 -101 -83 -126 -102
-81 -62 -220 -194 -273 -260 -28 -36 -75 -92 -104 -125 -173 -196 -412 -664
-458 -895 -4 -19 -20 -75 -35 -125 -36 -118 -58 -239 -66 -350 -3 -49 -13
-126 -22 -170 -22 -111 -21 -421 2 -523 9 -43 16 -119 16 -185 0 -78 6 -137
20 -192 11 -44 20 -89 20 -100 0 -11 9 -49 20 -83 11 -35 20 -91 20 -124 0
-44 11 -93 39 -177 21 -64 47 -147 59 -186 33 -112 120 -355 140 -388 10 -17
33 -40 52 -52 34 -20 49 -20 695 -20 547 0 667 2 703 14 37 13 49 13 85 1 34
-12 205 -15 940 -17 861 -3 900 -3 941 15 44 20 76 67 76 113 0 48 13 4 36
-118 13 -70 32 -171 43 -223 12 -52 28 -147 37 -210 9 -63 18 -118 20 -121 2
-4 9 -42 15 -85 6 -44 33 -189 60 -324 27 -135 49 -264 49 -286 0 -23 13 -93
29 -155 16 -63 32 -134 36 -159 10 -66 91 -491 114 -595 10 -49 29 -139 41
-200 12 -60 33 -159 47 -220 13 -60 33 -161 43 -224 11 -63 31 -155 44 -205
14 -50 30 -130 36 -177 6 -48 26 -149 45 -225 31 -125 56 -277 42 -264 -2 3
-59 136 -125 295 -66 160 -156 369 -200 465 -141 310 -1142 2423 -1178 2488
-107 192 -273 285 -575 324 -149 19 -2172 19 -2304 0 -195 -28 -329 -82 -390
-157 -117 -143 -143 -448 -63 -754 14 -56 503 -1079 1845 -3866 1004 -2084
1864 -3865 1910 -3958 92 -183 153 -261 250 -324 64 -40 201 -87 305 -104 l78
-12 10 -38 c5 -22 14 -56 20 -77 5 -21 16 -46 24 -57 9 -11 16 -32 16 -47 0
-14 9 -47 20 -73 11 -26 20 -64 20 -86 0 -42 34 -154 53 -178 6 -7 14 -39 18
-70 3 -31 10 -65 14 -76 5 -11 5 -17 0 -13 -4 4 -14 3 -22 -3 -9 -9 -13 -8
-13 0 0 6 -6 11 -14 11 -8 0 -13 -8 -12 -17 0 -10 -7 -19 -18 -21 -10 -2 -28
-12 -39 -23 -11 -10 -24 -16 -29 -13 -9 6 -11 -179 -2 -214 4 -13 17 -25 33
-28 14 -4 35 -15 46 -25 18 -16 27 -16 98 -6 42 6 77 15 77 19 0 4 -7 8 -16 8
-8 0 -12 5 -9 10 3 6 17 10 31 10 14 0 62 9 107 19 45 11 129 24 186 31 57 6
126 20 153 31 27 10 68 20 91 20 43 1 114 16 88 18 -37 3 9 17 77 23 42 4 94
10 116 14 25 4 37 3 32 -4 -10 -16 34 -22 120 -15 56 4 83 2 88 -6 4 -6 2 -11
-5 -11 -7 0 -9 -3 -5 -7 4 -5 34 -6 67 -5 41 3 67 -1 83 -11 12 -8 45 -18 72
-22 27 -4 68 -13 92 -21 23 -8 62 -14 85 -14 24 0 52 -7 63 -15 11 -8 41 -15
70 -15 33 0 56 -5 64 -15 8 -10 31 -15 67 -15 35 0 60 -5 69 -15 27 -27 138
-15 121 13 -4 5 2 17 13 27 11 10 20 27 20 38 0 15 3 17 14 8 12 -10 14 -2 13
48 0 47 -3 57 -11 45 -9 -12 -14 -7 -25 31 -12 42 -16 45 -47 45 -23 0 -37 6
-44 21 -13 24 -6 50 12 47 10 -2 13 16 13 71 0 51 4 76 13 78 7 3 12 22 12 48
0 42 16 94 32 105 4 3 10 49 14 103 4 53 10 94 14 92 10 -6 30 50 30 82 0 13
-5 32 -12 42 -9 14 -8 23 6 42 9 13 20 23 24 22 4 -1 6 6 4 16 -2 15 7 19 56
25 89 10 234 52 304 87 76 39 171 132 221 217 50 85 3765 7833 3788 7899 46
136 75 378 59 499 -38 273 -115 375 -332 433 -164 45 -198 46 -1323 46 -984 0
-1079 -1 -1185 -18 -306 -48 -447 -141 -562 -372 -22 -44 -294 -624 -605
-1289 -500 -1071 -615 -1326 -757 -1666 -42 -101 -45 -83 -11 76 27 126 47
230 90 464 14 80 37 199 51 265 14 66 31 165 38 220 14 103 61 339 97 476 10
42 19 94 19 115 0 22 7 66 15 99 8 33 15 80 15 105 0 25 6 72 14 105 15 66 44
235 76 445 11 74 27 176 35 225 23 134 73 463 80 520 12 98 68 410 75 418 5 5
11 -5 15 -22 8 -37 54 -78 98 -86 18 -3 457 -5 977 -3 1020 3 950 0 1023 51
13 9 21 9 35 0 71 -51 30 -48 710 -51 423 -2 645 1 672 8 69 18 95 50 120 142
12 46 35 123 52 172 16 49 35 130 43 180 8 50 19 107 25 126 28 92 43 187 50
320 5 90 14 162 24 189 25 69 23 420 -4 520 -15 54 -20 107 -20 193 0 113 -14
213 -46 325 -8 29 -19 87 -24 130 -11 94 -150 501 -193 566 -8 12 -25 47 -38
77 -35 83 -133 253 -207 360 -145 210 -338 419 -507 546 -106 80 -114 84 -182
84 -49 0 -68 -5 -107 -31 -27 -16 -50 -29 -51 -27 -2 2 -28 68 -58 148 -155
411 -407 813 -625 998 -30 26 -96 83 -146 127 -149 131 -174 149 -335 245
-192 114 -185 110 -304 155 -292 109 -552 178 -734 195 -65 6 -136 15 -158 20
-53 13 -179 12 -235 -1 -25 -5 -62 -23 -82 -40 -42 -33 -60 -36 -79 -13 -31
37 -190 165 -269 216 -194 124 -295 168 -507 219 -216 52 -471 73 -573 48z
m270 -94 c142 -7 312 -43 444 -92 85 -32 258 -120 332 -169 65 -43 235 -193
261 -230 10 -14 34 -45 54 -69 50 -59 159 -226 197 -300 71 -139 164 -362 177
-425 4 -19 18 -66 30 -105 13 -38 35 -131 49 -205 14 -74 33 -157 41 -185 17
-61 57 -348 56 -413 0 -26 7 -112 15 -192 23 -209 14 -427 -37 -880 -19 -167
-25 -214 -48 -395 -11 -88 -56 -406 -70 -500 -5 -33 -17 -109 -26 -170 -24
-169 -64 -413 -180 -1125 -42 -256 -80 -472 -84 -480 -8 -16 -21 -86 -41 -240
-7 -47 -18 -110 -26 -141 -8 -31 -14 -76 -14 -100 0 -24 -4 -60 -10 -79 -9
-34 -21 -115 -40 -265 -4 -38 -16 -108 -25 -155 -9 -47 -19 -101 -21 -120 -2
-19 -11 -75 -19 -125 -8 -49 -19 -124 -25 -165 -7 -41 -18 -100 -26 -131 -8
-30 -14 -69 -14 -85 0 -16 -6 -60 -14 -99 -8 -38 -27 -137 -42 -220 -14 -82
-33 -176 -40 -208 -8 -32 -14 -74 -14 -94 0 -19 -6 -58 -14 -86 -7 -29 -19
-88 -26 -132 -6 -44 -24 -141 -40 -215 -15 -74 -35 -178 -44 -230 -10 -52 -27
-138 -38 -190 -11 -52 -24 -121 -28 -153 -7 -51 -19 -106 -51 -228 -5 -20 -9
-51 -9 -68 0 -17 -7 -48 -15 -68 -8 -19 -15 -52 -15 -73 0 -20 -4 -50 -9 -66
-5 -16 -19 -72 -30 -124 -37 -160 -43 -179 -71 -224 -54 -84 -169 -113 -484
-119 -197 -4 -252 4 -333 47 -38 20 -96 83 -120 132 -35 68 -92 245 -103 319
-6 39 -17 93 -25 120 -20 68 -61 263 -74 354 -7 40 -16 82 -21 92 -6 10 -19
69 -31 131 -11 62 -27 141 -35 175 -7 34 -14 73 -14 86 0 14 -6 40 -14 58 -8
19 -28 115 -46 214 -18 99 -42 223 -55 275 -13 52 -26 115 -30 140 -8 54 -38
212 -70 370 -38 183 -57 278 -75 390 -10 58 -25 139 -34 180 -8 41 -29 156
-46 255 -17 99 -40 221 -50 270 -10 50 -24 126 -30 170 -11 80 -40 251 -60
354 -5 30 -14 59 -18 65 -9 11 -31 119 -83 396 -54 293 -93 518 -125 715 -63
390 -110 717 -144 990 -48 396 -49 401 -80 755 -31 353 -43 974 -22 1115 7 44
17 110 22 148 6 37 15 100 20 140 10 66 30 166 65 322 7 33 25 92 38 130 14
39 33 93 42 120 35 100 68 181 98 235 54 99 131 224 169 277 66 90 258 275
358 344 89 62 309 173 375 189 17 4 57 15 90 25 75 20 320 54 360 49 17 -2 77
-6 135 -9z m-1478 -392 c28 -25 23 -45 -39 -151 -31 -53 -72 -124 -91 -157
-77 -134 -148 -301 -202 -475 -18 -58 -37 -118 -42 -135 -5 -16 -13 -52 -19
-80 -5 -27 -16 -79 -24 -115 -21 -86 -47 -264 -67 -465 -20 -186 -16 -966 5
-1230 60 -733 199 -1762 350 -2602 l24 -133 -894 0 c-706 0 -894 3 -897 13 -5
21 -67 198 -103 297 -19 52 -44 122 -55 155 -11 33 -28 80 -38 105 -15 38 -41
118 -116 359 -8 25 -14 54 -14 65 0 12 -7 34 -15 50 -9 16 -33 97 -55 180 -21
83 -43 165 -49 181 -13 41 -68 305 -81 387 -6 37 -14 78 -19 90 -15 40 -49
327 -62 513 -19 288 -8 707 22 905 6 36 14 94 20 130 16 114 50 281 72 355 41
139 66 203 149 395 43 100 171 323 253 440 155 222 470 507 690 624 28 14 57
30 65 35 45 27 189 91 204 91 10 0 36 11 59 24 23 14 65 30 92 37 28 6 61 17
75 24 77 38 497 103 679 104 84 1 108 -2 123 -16z m3038 -42 c152 -18 230 -30
250 -41 10 -5 29 -10 42 -10 31 0 243 -61 348 -99 79 -30 313 -135 335 -151 6
-4 41 -24 80 -45 38 -20 98 -58 132 -84 35 -25 83 -59 107 -76 64 -45 147
-123 277 -261 150 -161 288 -365 380 -564 12 -25 34 -72 49 -105 15 -33 33
-78 40 -100 7 -22 21 -60 32 -84 11 -24 29 -80 40 -125 11 -44 24 -86 29 -92
11 -13 40 -142 69 -297 11 -60 22 -113 25 -118 11 -17 26 -125 30 -214 2 -49
11 -164 19 -255 13 -152 13 -267 -2 -660 -4 -108 -50 -498 -71 -605 -7 -33
-17 -85 -22 -115 -6 -30 -17 -78 -25 -106 -8 -28 -14 -60 -14 -71 0 -11 -16
-82 -36 -159 -19 -76 -42 -166 -49 -199 -16 -72 -162 -549 -200 -655 -15 -41
-35 -104 -45 -140 l-18 -65 -946 -3 c-520 -1 -946 0 -946 2 0 2 5 28 10 57 21
108 120 710 154 934 151 988 240 1882 236 2340 -4 296 -58 747 -116 951 -12
45 -28 110 -34 145 -14 74 -90 308 -150 459 -77 194 -214 447 -292 538 -30 35
-35 61 -15 81 13 14 137 11 297 -8z m-5610 -1643 c0 -7 -9 -47 -21 -88 -11
-41 -24 -97 -29 -125 -4 -27 -16 -90 -25 -140 -41 -221 -56 -418 -56 -735 -1
-146 4 -332 10 -415 11 -151 72 -605 91 -680 6 -22 21 -94 34 -160 47 -232 77
-369 85 -384 5 -9 21 -61 36 -116 26 -97 96 -330 117 -390 12 -34 37 -108 63
-180 9 -27 32 -93 50 -145 19 -52 47 -128 64 -169 17 -40 31 -86 31 -102 l0
-29 -618 0 -618 0 -11 38 c-17 54 -61 177 -88 247 -13 33 -29 89 -36 125 -6
36 -22 90 -34 120 -13 30 -30 91 -40 135 -9 44 -27 127 -40 185 -60 268 -80
488 -76 830 3 308 35 549 108 810 57 204 170 490 218 550 7 8 16 26 20 40 16
53 223 339 331 459 47 52 222 200 340 289 56 42 94 54 94 30z m8153 -237 c133
-100 313 -289 418 -439 79 -113 203 -321 234 -392 8 -19 26 -57 40 -85 68
-138 149 -385 185 -563 11 -53 26 -120 34 -148 17 -63 58 -372 51 -384 -3 -5
-1 -71 5 -147 8 -95 8 -183 1 -283 -25 -354 -34 -426 -82 -645 -11 -49 -24
-109 -29 -133 -5 -23 -14 -51 -20 -61 -5 -11 -10 -32 -10 -47 0 -15 -13 -70
-29 -123 -16 -53 -32 -113 -35 -133 l-7 -38 -611 0 -610 0 5 38 c3 20 18 75
35 122 37 109 115 356 137 440 9 36 22 76 27 90 6 14 15 44 19 68 20 97 37
166 65 268 8 28 14 61 14 73 0 12 11 67 25 123 14 56 25 117 25 136 0 19 4 51
9 71 11 40 33 186 51 326 6 50 15 122 21 160 18 133 28 537 20 775 -6 171 -17
295 -40 455 -33 234 -35 247 -75 395 -14 52 -26 100 -26 107 0 16 29 43 47 43
8 0 56 -31 106 -69z m-2418 -1523 c-45 -430 -140 -1115 -220 -1583 -50 -296
-76 -439 -81 -444 -8 -9 -4 86 6 119 12 41 36 212 45 325 7 81 26 206 69 440
13 72 29 171 34 220 14 118 36 268 72 495 17 102 35 226 40 275 14 116 31 215
37 215 3 0 2 -28 -2 -62z m-4402 -2790 c13 -29 301 -638 639 -1353 l615 -1301
713 -1722 c392 -948 716 -1719 720 -1715 4 4 316 760 695 1678 l687 1670 652
1398 651 1397 1247 0 c687 0 1248 -2 1248 -4 0 -5 -3815 -7964 -3916 -8168
-17 -36 -35 -58 -47 -60 -24 -4 -42 -56 -67 -196 -32 -173 -47 -249 -68 -341
-11 -47 -26 -113 -32 -146 -7 -33 -16 -80 -21 -105 -6 -25 -14 -70 -18 -101
-5 -30 -13 -71 -19 -90 -20 -66 -35 -135 -41 -189 -4 -30 -12 -65 -19 -77 -15
-26 -16 -87 -2 -113 5 -10 27 -24 47 -30 48 -15 63 -34 63 -80 0 -45 -38 -87
-67 -75 -10 5 -43 11 -73 15 -30 4 -98 18 -150 30 -52 12 -115 26 -140 30 -25
4 -88 18 -140 30 -274 64 -403 83 -500 74 -139 -12 -616 -98 -780 -141 -179
-46 -180 -47 -215 -30 -24 12 -35 25 -42 55 -18 71 29 136 108 148 59 10 65
23 46 103 -10 38 -17 76 -17 85 0 10 -7 30 -15 46 -8 16 -28 80 -44 142 -16
62 -44 165 -61 228 -18 63 -40 149 -50 190 -10 41 -32 122 -48 180 -16 58 -42
159 -57 225 -15 66 -31 125 -35 130 -7 9 -3787 7851 -3906 8103 -30 63 -54
118 -54 123 0 5 494 9 1244 9 l1245 0 24 -52z m2217 -3627 c89 -102 58 -96
501 -94 333 1 391 3 418 17 l31 16 -10 -24 c-29 -79 -386 -938 -402 -971 -46
-91 -83 -100 -124 -30 -21 36 -447 1051 -485 1155 -8 21 -7 22 3 9 7 -8 38
-44 68 -78z"/>
<path d="M9578 4132 c-71 -2 -89 -6 -97 -20 -8 -15 8 -158 49 -442 6 -41 15
-111 20 -155 8 -75 34 -265 63 -453 8 -49 19 -87 27 -92 15 -9 54 -5 104 11
16 5 49 9 73 9 82 0 85 6 79 128 -4 59 -9 256 -12 437 -8 486 -11 556 -20 565
-11 10 -165 17 -286 12z m284 -584 c0 -13 2 -138 3 -279 l2 -256 -81 -6 c-44
-3 -82 -10 -84 -16 -6 -17 -49 -13 -56 5 -3 9 -6 43 -6 77 0 44 -3 58 -10 47
-7 -11 -10 0 -10 38 0 28 -4 52 -9 52 -5 0 -12 33 -14 73 -3 39 -10 101 -16
137 -5 36 -13 84 -17 108 l-7 42 152 0 c149 0 151 0 153 -22z"/>
<path d="M10053 4122 c-3 -8 -3 -62 1 -121 4 -58 9 -236 11 -396 3 -159 7
-359 11 -443 7 -176 8 -177 106 -192 29 -4 68 -14 85 -21 52 -21 61 -4 74 136
6 66 15 158 20 205 5 47 14 130 19 185 5 55 14 143 20 195 16 137 28 253 36
350 5 70 4 88 -9 98 -10 9 -69 14 -192 16 -147 2 -178 0 -182 -12z m297 -647
c0 -52 -4 -103 -10 -113 -5 -9 -13 -100 -17 -201 -7 -160 -10 -185 -26 -195
-12 -7 -20 -8 -25 -1 -15 21 -53 35 -93 35 -83 0 -79 -13 -79 286 0 174 -3
263 -10 259 -5 -3 -10 1 -10 9 0 14 19 16 135 16 l135 0 0 -95z"/>
<path d="M10633 4098 c-6 -7 -15 -62 -21 -123 -20 -196 -23 -229 -33 -320 -17
-164 -28 -269 -38 -385 -6 -63 -16 -155 -22 -204 -21 -168 -16 -179 78 -189
29 -3 66 -14 83 -23 29 -18 31 -18 50 1 13 14 23 44 30 94 6 40 13 78 17 85 4
6 11 36 15 66 9 60 21 123 36 185 6 22 15 65 21 95 6 30 22 109 37 175 15 66
33 152 40 190 36 185 49 245 58 265 13 30 -18 46 -119 64 -246 43 -219 40
-232 24z m220 -585 c-3 -32 -8 -67 -12 -78 -5 -11 -14 -33 -20 -48 -6 -15 -11
-44 -11 -63 0 -19 -4 -42 -10 -52 -5 -9 -12 -43 -15 -74 -4 -32 -11 -60 -16
-63 -5 -4 -9 -26 -9 -50 0 -24 -4 -47 -10 -50 -5 -3 -10 -28 -10 -56 0 -27 -4
-49 -10 -49 -5 0 -10 -13 -10 -29 0 -36 -13 -46 -33 -26 -10 10 -35 15 -71 15
-31 0 -56 4 -56 9 0 5 -9 13 -20 16 -21 7 -29 58 -10 70 6 3 10 46 10 96 0 53
4 89 10 89 6 0 10 31 10 74 0 40 5 98 12 127 6 30 11 68 10 84 -1 17 1 49 4
73 l5 42 133 0 133 0 -4 -57z"/>
<path d="M9175 4094 c-5 -2 -61 -10 -124 -18 -63 -8 -119 -20 -124 -25 -12
-12 8 -106 58 -276 18 -60 43 -153 55 -205 12 -52 28 -115 36 -140 19 -60 45
-157 89 -325 20 -77 43 -155 51 -174 l15 -34 76 7 c87 8 143 28 143 50 0 9 -9
75 -20 148 -25 166 -36 241 -55 393 -31 247 -36 281 -45 335 -8 49 -17 126
-25 213 -5 44 -22 57 -74 56 -25 0 -50 -2 -56 -5z m165 -567 c0 -24 4 -47 9
-53 5 -5 12 -36 15 -69 3 -33 10 -91 15 -130 6 -38 17 -117 24 -175 7 -58 17
-113 21 -123 13 -29 -8 -41 -82 -45 -37 -2 -73 -9 -79 -14 -9 -7 -13 -7 -13 1
0 7 -4 9 -10 6 -6 -4 -10 8 -10 29 0 20 -4 36 -10 36 -5 0 -10 13 -10 29 0 17
-4 32 -10 36 -5 3 -12 32 -16 65 -4 33 -10 57 -15 54 -5 -3 -9 11 -9 31 0 22
-4 34 -10 30 -6 -4 -10 10 -10 34 0 22 -3 42 -8 45 -4 2 -16 43 -27 89 -11 47
-23 83 -27 81 -4 -3 -8 15 -8 40 l0 46 135 0 135 0 0 -43z"/>
<path d="M9943 2656 c15 -12 12 -14 -29 -20 -25 -3 -77 -3 -114 0 -81 8 -127
0 -111 -20 17 -20 3 -26 -60 -26 -32 0 -71 -5 -86 -11 -15 -6 -37 -15 -48 -19
-11 -5 -65 -11 -120 -15 -55 -3 -101 -10 -103 -15 -2 -6 -39 -10 -83 -10 -44
0 -87 -4 -97 -9 -9 -5 -25 -12 -34 -15 -9 -3 -22 -23 -29 -46 -8 -27 -17 -39
-26 -36 -15 6 -15 9 -13 -109 1 -49 8 -114 17 -144 12 -41 14 -75 8 -140 -14
-172 2 -427 32 -508 23 -62 69 -122 99 -129 13 -3 25 -12 28 -20 3 -9 21 -14
48 -14 31 0 48 -6 61 -20 14 -16 29 -20 86 -20 49 0 70 -4 74 -14 4 -10 29
-15 82 -18 42 -2 79 -8 83 -14 4 -7 37 -13 73 -16 46 -3 72 -9 84 -22 13 -13
27 -16 48 -12 18 4 43 0 63 -10 36 -17 48 -17 281 4 50 5 98 13 105 19 7 6 56
13 107 17 106 8 211 33 218 53 4 9 28 13 83 13 54 0 81 4 89 14 7 8 28 17 49
20 85 15 90 17 96 42 4 14 11 22 16 19 10 -6 14 1 24 48 4 15 11 25 16 22 17
-10 19 31 16 285 -2 140 -1 282 2 315 5 55 6 58 16 34 9 -22 11 -15 12 50 1
75 1 75 -11 36 l-13 -40 -1 40 c-1 22 -6 84 -10 138 -8 101 -15 117 -54 117
-10 0 -25 7 -33 15 -9 8 -32 15 -52 15 -20 0 -52 9 -70 20 -21 13 -50 20 -81
20 -27 0 -62 7 -77 15 -16 8 -50 15 -76 15 -30 0 -60 8 -83 21 -31 19 -39 20
-66 9 -27 -12 -32 -11 -46 9 -13 19 -23 22 -75 20 -48 -2 -62 1 -70 14 -11 20
-75 23 -123 6 -25 -9 -37 -9 -61 4 -20 11 -23 16 -11 17 9 0 17 5 17 10 0 6
-19 10 -42 10 -38 -1 -41 -2 -25 -14z m202 -91 c70 -18 151 -35 215 -44 30 -4
73 -12 95 -19 22 -6 78 -18 125 -27 47 -9 108 -23 136 -31 28 -8 62 -14 75
-14 14 0 46 -13 71 -29 38 -24 48 -37 54 -68 5 -21 8 -211 8 -423 l1 -385 -28
-47 c-30 -53 -83 -83 -172 -99 -27 -5 -115 -21 -195 -35 -481 -87 -463 -85
-570 -73 -52 5 -117 14 -145 20 -27 5 -75 14 -105 20 -30 6 -82 16 -115 24
-33 7 -100 21 -150 30 -84 15 -136 27 -242 54 -59 16 -98 66 -113 145 -12 68
-30 419 -22 448 2 10 -1 90 -7 178 -12 152 -11 162 8 204 13 31 27 47 43 50
52 11 256 46 303 52 28 3 79 14 115 24 36 10 119 26 185 35 66 9 143 20 170
24 68 9 199 3 260 -14z"/>
</g>
</svg>
