<svg width="25" height="24" viewBox="0 0 25 24" fill="none" xmlns="http://www.w3.org/2000/svg">
<g id="noun-bookmark-5116977 1">
<g id="Group">
<path id="Vector" d="M8.95224 21.4884L12.8592 18.5581C12.9417 18.4958 13.0557 18.4958 13.1383 18.5581L17.0452 21.4884C17.5546 21.8699 18.188 22.0479 18.8215 21.9876C19.4552 21.9273 20.0435 21.633 20.4718 21.1624C20.9002 20.6916 21.1379 20.0782 21.1384 19.4419V5.0232C21.1373 4.22167 20.8185 3.45327 20.2518 2.88656C19.6849 2.31969 18.9166 2.00092 18.115 2H7.88273C7.0812 2.00093 6.31281 2.31971 5.74594 2.88656C5.17923 3.45327 4.86045 4.22163 4.85938 5.0232V19.4419C4.85938 20.0785 5.09686 20.6922 5.52511 21.1632C5.95352 21.6341 6.5422 21.9284 7.17585 21.9886C7.80965 22.0487 8.44318 21.8704 8.9524 21.4884H8.95224ZM6.25452 5.02328C6.25499 4.59175 6.42676 4.17797 6.73201 3.87275C7.03708 3.56752 7.45085 3.3959 7.88253 3.39543H18.1152H18.115C18.5467 3.39589 18.9605 3.56751 19.2656 3.87275C19.5708 4.17798 19.7426 4.59175 19.743 5.02328V19.442C19.743 19.7313 19.6351 20.0102 19.4403 20.2244C19.2456 20.4383 18.9781 20.5721 18.69 20.5995C18.4019 20.6268 18.1141 20.5458 17.8825 20.3722L13.9756 17.4428C13.6932 17.2326 13.3508 17.1191 12.9988 17.1191C12.6469 17.1191 12.3044 17.2326 12.0221 17.4428L8.11513 20.3722C7.88355 20.5458 7.59578 20.6268 7.30766 20.5995C7.01956 20.5721 6.75199 20.4383 6.55736 20.2244C6.36254 20.0102 6.25462 19.7313 6.25462 19.442L6.25452 5.02328Z" fill="white"/>
<path id="Vector_2" d="M10.2084 8.04671H15.7898C16.0391 8.04671 16.2694 7.91372 16.394 7.69788C16.5186 7.48203 16.5186 7.21604 16.394 7.0002C16.2694 6.78436 16.0391 6.65137 15.7898 6.65137H10.2084C9.95908 6.65137 9.72876 6.78436 9.60418 7.0002C9.4796 7.21605 9.4796 7.48204 9.60418 7.69788C9.72876 7.91372 9.95909 8.04671 10.2084 8.04671Z" fill="white"/>
</g>
</g>
</svg>
