<svg width="25" height="24" viewBox="0 0 25 24" fill="none" xmlns="http://www.w3.org/2000/svg">
<path d="M2.85938 5.00004C2.85938 3.34316 4.20254 2 5.85942 2H12.8594C14.5163 2 15.8594 3.34316 15.8594 5.00004V7.50002C15.8594 8.05233 15.4118 8.49998 14.8595 8.49998C14.3072 8.49998 13.8593 8.05233 13.8593 7.50002V5.00004C13.8593 4.44773 13.4117 3.99991 12.8594 3.99991H5.85942C5.30711 3.99991 4.85929 4.44773 4.85929 5.00004V19C4.85929 19.5523 5.30711 20.0001 5.85942 20.0001H12.8594C13.4117 20.0001 13.8593 19.5523 13.8593 19V16.5C13.8593 15.9477 14.3072 15.5 14.8595 15.5C15.4118 15.5 15.8594 15.9477 15.8594 16.5V19C15.8594 20.657 14.5163 22 12.8594 22H5.85942C4.20254 22 2.85938 20.657 2.85938 19V5.00004Z" fill="white"/>
<path d="M16.8573 15.0001C16.8573 15.379 17.0715 15.7252 17.4101 15.8946C17.749 16.0639 18.1544 16.0274 18.4575 15.8002L22.4575 12.8002C22.7093 12.6112 22.8574 12.3148 22.8574 12.0001C22.8574 11.6854 22.7093 11.389 22.4575 11.2L18.4575 8.19999C18.1545 7.97281 17.749 7.93615 17.4101 8.10557C17.0714 8.27499 16.8573 8.62119 16.8573 9.00005V11.0001H11.8576C11.3052 11.0001 10.8574 11.4478 10.8574 12.0001C10.8574 12.5524 11.3052 13.0001 11.8576 13.0001H16.8573V15.0001Z" fill="white"/>
</svg>
