<svg width="25" height="24" viewBox="0 0 25 24" fill="none" xmlns="http://www.w3.org/2000/svg">
<g id="noun-ticket-4213441 1" clip-path="url(#clip0_203_13479)">
<g id="Group">
<g id="Vector">
<path d="M9.8962 8.91756C9.65367 8.91745 9.42937 9.0468 9.30794 9.25696C9.18663 9.46701 9.18651 9.72583 9.30772 9.93599C9.42904 10.1463 9.65313 10.2758 9.89576 10.2758L14.3096 10.2763C14.5522 10.2763 14.7765 10.1468 14.898 9.93662C15.0193 9.72635 15.0193 9.46742 14.8978 9.25725C14.7765 9.04698 14.5523 8.91753 14.3095 8.91752L9.89565 8.91804L9.8962 8.91756Z" fill="white"/>
<path d="M9.8962 8.91756C9.65367 8.91745 9.42937 9.0468 9.30794 9.25696C9.18663 9.46701 9.18651 9.72583 9.30772 9.93599C9.42904 10.1463 9.65313 10.2758 9.89576 10.2758L14.3096 10.2763C14.5522 10.2763 14.7765 10.1468 14.898 9.93662C15.0193 9.72635 15.0193 9.46742 14.8978 9.25725C14.7765 9.04698 14.5523 8.91753 14.3095 8.91752L9.89565 8.91804L9.8962 8.91756Z" stroke="white"/>
<path d="M9.8962 8.91756C9.65367 8.91745 9.42937 9.0468 9.30794 9.25696C9.18663 9.46701 9.18651 9.72583 9.30772 9.93599C9.42904 10.1463 9.65313 10.2758 9.89576 10.2758L14.3096 10.2763C14.5522 10.2763 14.7765 10.1468 14.898 9.93662C15.0193 9.72635 15.0193 9.46742 14.8978 9.25725C14.7765 9.04698 14.5523 8.91753 14.3095 8.91752L9.89565 8.91804L9.8962 8.91756Z" stroke="white"/>
</g>
<g id="Vector_2">
<path d="M5.10855 18.1105C4.92839 18.1104 4.75574 18.0389 4.62842 17.9116C4.5011 17.7843 4.42962 17.6117 4.42962 17.4316L4.4291 14.7145C4.42921 14.5346 4.50069 14.3619 4.62801 14.2346C4.75532 14.1073 4.92798 14.0358 5.10792 14.0357C5.65792 14.0511 6.19056 13.8435 6.58505 13.4601C6.97945 13.0766 7.20203 12.5501 7.20214 12C7.20225 11.4499 6.97985 10.9232 6.58569 10.5395C6.1914 10.1559 5.65887 9.94812 5.10899 9.96323C4.92872 9.96345 4.75597 9.89185 4.62854 9.76442C4.50111 9.637 4.42941 9.46413 4.42962 9.28387L4.43017 6.56784C4.43017 6.3878 4.50166 6.21514 4.62897 6.08783C4.75629 5.96051 4.92894 5.88903 5.10899 5.88903L20.0466 5.88903L20.0465 5.88892C20.5869 5.88892 21.105 6.10358 21.4871 6.48565C21.8692 6.86772 22.0838 7.38587 22.0837 7.92613V9.28398C22.0837 9.46402 22.0121 9.63657 21.8848 9.76389C21.7575 9.8912 21.585 9.96279 21.4049 9.96279C20.749 9.96279 20.0466 10.621 20.0472 11.6605C20.0472 12.6994 20.7497 13.3577 21.4049 13.3582L21.4048 13.3583C21.5929 13.3582 21.7725 13.436 21.9009 13.5732C22.0294 13.7105 22.0953 13.8947 22.0828 14.0824C22.0835 14.097 22.0839 14.1117 22.0837 14.1264L22.0837 16.0739C22.0836 16.6139 21.8691 17.132 21.4871 17.5139C21.1052 17.8959 20.5872 18.1104 20.0471 18.1106L16.7726 18.1106L16.7683 18.111L16.7644 18.111L5.10855 18.1105ZM20.0462 16.7525L17.4473 16.752L17.4473 7.24556L20.0465 7.24655C20.2266 7.24655 20.3993 7.31814 20.5266 7.44546C20.6539 7.57267 20.7254 7.74542 20.7254 7.92547L20.7254 8.69751C19.5006 9.04463 18.6883 10.3102 18.6883 11.6594C18.6888 13.009 19.5012 14.2747 20.7249 14.6218L20.7255 16.0732L20.7256 16.0731C20.7256 16.2531 20.6539 16.4258 20.5266 16.5531C20.3992 16.6804 20.2267 16.752 20.0467 16.752L20.0462 16.7525ZM5.78774 7.24556L16.0893 7.24556L16.0893 16.752L5.78774 16.752L5.78722 15.3266L5.78733 15.3264C6.81724 15.1155 7.69153 14.4395 8.15474 13.4955C8.61794 12.5518 8.61794 11.4467 8.15474 10.5029C7.69143 9.55903 6.81734 8.883 5.78733 8.67199V7.24599L5.78774 7.24556Z" fill="white"/>
<path d="M5.10855 18.1105C4.92839 18.1104 4.75574 18.0389 4.62842 17.9116C4.5011 17.7843 4.42962 17.6117 4.42962 17.4316L4.4291 14.7145C4.42921 14.5346 4.50069 14.3619 4.62801 14.2346C4.75532 14.1073 4.92798 14.0358 5.10792 14.0357C5.65792 14.0511 6.19056 13.8435 6.58505 13.4601C6.97945 13.0766 7.20203 12.5501 7.20214 12C7.20225 11.4499 6.97985 10.9232 6.58569 10.5395C6.1914 10.1559 5.65887 9.94812 5.10899 9.96323C4.92872 9.96345 4.75597 9.89185 4.62854 9.76442C4.50111 9.637 4.42941 9.46413 4.42962 9.28387L4.43017 6.56784C4.43017 6.3878 4.50166 6.21514 4.62897 6.08783C4.75629 5.96051 4.92894 5.88903 5.10899 5.88903L20.0466 5.88903L20.0465 5.88892C20.5869 5.88892 21.105 6.10358 21.4871 6.48565C21.8692 6.86772 22.0838 7.38587 22.0837 7.92613V9.28398C22.0837 9.46402 22.0121 9.63657 21.8848 9.76389C21.7575 9.8912 21.585 9.96279 21.4049 9.96279C20.749 9.96279 20.0466 10.621 20.0472 11.6605C20.0472 12.6994 20.7497 13.3577 21.4049 13.3582L21.4048 13.3583C21.5929 13.3582 21.7725 13.436 21.9009 13.5732C22.0294 13.7105 22.0953 13.8947 22.0828 14.0824C22.0835 14.097 22.0839 14.1117 22.0837 14.1264L22.0837 16.0739C22.0836 16.6139 21.8691 17.132 21.4871 17.5139C21.1052 17.8959 20.5872 18.1104 20.0471 18.1106L16.7726 18.1106L16.7683 18.111L16.7644 18.111L5.10855 18.1105ZM20.0462 16.7525L17.4473 16.752L17.4473 7.24556L20.0465 7.24655C20.2266 7.24655 20.3993 7.31814 20.5266 7.44546C20.6539 7.57267 20.7254 7.74542 20.7254 7.92547L20.7254 8.69751C19.5006 9.04463 18.6883 10.3102 18.6883 11.6594C18.6888 13.009 19.5012 14.2747 20.7249 14.6218L20.7255 16.0732L20.7256 16.0731C20.7256 16.2531 20.6539 16.4258 20.5266 16.5531C20.3992 16.6804 20.2267 16.752 20.0467 16.752L20.0462 16.7525ZM5.78774 7.24556L16.0893 7.24556L16.0893 16.752L5.78774 16.752L5.78722 15.3266L5.78733 15.3264C6.81724 15.1155 7.69153 14.4395 8.15474 13.4955C8.61794 12.5518 8.61794 11.4467 8.15474 10.5029C7.69143 9.55903 6.81734 8.883 5.78733 8.67199V7.24599L5.78774 7.24556Z" stroke="white"/>
<path d="M5.10855 18.1105C4.92839 18.1104 4.75574 18.0389 4.62842 17.9116C4.5011 17.7843 4.42962 17.6117 4.42962 17.4316L4.4291 14.7145C4.42921 14.5346 4.50069 14.3619 4.62801 14.2346C4.75532 14.1073 4.92798 14.0358 5.10792 14.0357C5.65792 14.0511 6.19056 13.8435 6.58505 13.4601C6.97945 13.0766 7.20203 12.5501 7.20214 12C7.20225 11.4499 6.97985 10.9232 6.58569 10.5395C6.1914 10.1559 5.65887 9.94812 5.10899 9.96323C4.92872 9.96345 4.75597 9.89185 4.62854 9.76442C4.50111 9.637 4.42941 9.46413 4.42962 9.28387L4.43017 6.56784C4.43017 6.3878 4.50166 6.21514 4.62897 6.08783C4.75629 5.96051 4.92894 5.88903 5.10899 5.88903L20.0466 5.88903L20.0465 5.88892C20.5869 5.88892 21.105 6.10358 21.4871 6.48565C21.8692 6.86772 22.0838 7.38587 22.0837 7.92613V9.28398C22.0837 9.46402 22.0121 9.63657 21.8848 9.76389C21.7575 9.8912 21.585 9.96279 21.4049 9.96279C20.749 9.96279 20.0466 10.621 20.0472 11.6605C20.0472 12.6994 20.7497 13.3577 21.4049 13.3582L21.4048 13.3583C21.5929 13.3582 21.7725 13.436 21.9009 13.5732C22.0294 13.7105 22.0953 13.8947 22.0828 14.0824C22.0835 14.097 22.0839 14.1117 22.0837 14.1264L22.0837 16.0739C22.0836 16.6139 21.8691 17.132 21.4871 17.5139C21.1052 17.8959 20.5872 18.1104 20.0471 18.1106L16.7726 18.1106L16.7683 18.111L16.7644 18.111L5.10855 18.1105ZM20.0462 16.7525L17.4473 16.752L17.4473 7.24556L20.0465 7.24655C20.2266 7.24655 20.3993 7.31814 20.5266 7.44546C20.6539 7.57267 20.7254 7.74542 20.7254 7.92547L20.7254 8.69751C19.5006 9.04463 18.6883 10.3102 18.6883 11.6594C18.6888 13.009 19.5012 14.2747 20.7249 14.6218L20.7255 16.0732L20.7256 16.0731C20.7256 16.2531 20.6539 16.4258 20.5266 16.5531C20.3992 16.6804 20.2267 16.752 20.0467 16.752L20.0462 16.7525ZM5.78774 7.24556L16.0893 7.24556L16.0893 16.752L5.78774 16.752L5.78722 15.3266L5.78733 15.3264C6.81724 15.1155 7.69153 14.4395 8.15474 13.4955C8.61794 12.5518 8.61794 11.4467 8.15474 10.5029C7.69143 9.55903 6.81734 8.883 5.78733 8.67199V7.24599L5.78774 7.24556Z" stroke="white"/>
</g>
</g>
</g>
<defs>
<clipPath id="clip0_203_13479">
<rect width="24" height="24" fill="white" transform="translate(0.859375)"/>
</clipPath>
</defs>
</svg>
